<?xml version="1.0" standalone="no"?><!DOCTYPE svg PUBLIC "-//W3C//DTD SVG 1.1//EN" "http://www.w3.org/Graphics/SVG/1.1/DTD/svg11.dtd"><svg t="1705653395072" class="icon" viewBox="0 0 1024 1024" version="1.1" xmlns="http://www.w3.org/2000/svg" p-id="1526" xmlns:xlink="http://www.w3.org/1999/xlink" width="200" height="200"><path d="M651.636364 139.636364 372.363636 139.636364l0 46.545455 279.272727 0L651.636364 139.636364zM884.363636 139.636364l-69.818182 0 0 46.545455L884.363636 186.181818c25.693091 0 46.545455 20.852364 46.545455 46.545455l0 93.090909L93.090909 325.818182 93.090909 232.727273c0-25.693091 20.852364-46.545455 46.545455-46.545455l69.818182 0L209.454545 139.636364 139.636364 139.636364C88.203636 139.636364 46.545455 181.341091 46.545455 232.727273l0 628.363636c0 51.432727 41.658182 93.090909 93.090909 93.090909l744.727273 0c51.432727 0 93.090909-41.704727 93.090909-93.090909L977.454545 232.727273C977.454545 181.341091 935.796364 139.636364 884.363636 139.636364zM930.909091 861.090909c0 25.693091-20.852364 46.545455-46.545455 46.545455L139.636364 907.636364c-25.693091 0-46.545455-20.852364-46.545455-46.545455L93.090909 372.363636l837.818182 0L930.909091 861.090909zM290.909091 232.727273C310.178909 232.727273 325.818182 217.088 325.818182 197.818182l0-69.818182C325.818182 108.730182 310.178909 93.090909 290.909091 93.090909S256 108.730182 256 128l0 69.818182C256 217.088 271.639273 232.727273 290.909091 232.727273zM733.090909 232.727273c19.269818 0 34.909091-15.639273 34.909091-34.909091l0-69.818182C768 108.730182 752.360727 93.090909 733.090909 93.090909S698.181818 108.730182 698.181818 128l0 69.818182C698.181818 217.088 713.821091 232.727273 733.090909 232.727273zM267.636364 605.090909C299.752727 605.090909 325.818182 579.025455 325.818182 546.909091c0-32.162909-26.065455-58.181818-58.181818-58.181818-32.116364 0-58.181818 26.065455-58.181818 58.181818C209.454545 579.025455 235.52 605.090909 267.636364 605.090909zM500.363636 605.090909c32.116364 0 58.181818-26.065455 58.181818-58.181818 0-32.162909-26.065455-58.181818-58.181818-58.181818-32.116364 0-58.181818 26.065455-58.181818 58.181818C442.181818 579.025455 468.247273 605.090909 500.363636 605.090909zM733.090909 605.090909c32.116364 0 58.181818-26.065455 58.181818-58.181818 0-32.162909-26.065455-58.181818-58.181818-58.181818-32.116364 0-58.181818 26.065455-58.181818 58.181818C674.909091 579.025455 700.974545 605.090909 733.090909 605.090909zM267.636364 791.272727C299.752727 791.272727 325.818182 765.207273 325.818182 733.090909S299.752727 674.909091 267.636364 674.909091c-32.116364 0-58.181818 26.065455-58.181818 58.181818S235.52 791.272727 267.636364 791.272727zM500.363636 791.272727c32.116364 0 58.181818-26.065455 58.181818-58.181818s-26.065455-58.181818-58.181818-58.181818c-32.116364 0-58.181818 26.065455-58.181818 58.181818S468.247273 791.272727 500.363636 791.272727z" fill="#040000" p-id="1527"></path></svg>